<svg xmlns="http://www.w3.org/2000/svg" viewBox="0 0 92.01 133.56"><defs><style>.cls-1{fill:#3cb271;}</style></defs><g id="Layer_2" data-name="Layer 2"><g id="Layer_1-2" data-name="Layer 1"><path class="cls-1" d="M31.7.07C40,.54,50.22-.76,60.39.77,74.53,2.89,88.16,17.1,90,31.36c1.93,15.22-3,27.51-15.39,36.62-2.69,2-2.47,3.63-.9,6.06C79.2,82.63,84.61,91.28,90,99.93c.55.89,1.74,1.78,1,2.93s-2,.66-3.11.67c-3.77,0-7.55-.08-11.32,0a5.33,5.33,0,0,1-5.18-2.86q-6.9-11.19-14-22.28a8.41,8.41,0,0,0-9.8-3.33c-1.81.67-1.65,2.19-1.66,3.61,0,6.89-.13,13.77,0,20.65.08,3.18-1,4.44-4.24,4.23s-6.21-.08-9.32-.06c-2.07,0-3.07-1-3.07-3q0-19.16,0-38.31c0-2.49,1.58-2.77,3.57-2.8,7.1-.1,14.19.17,21.3-.48,11.61-1,20.79-10.66,20.11-22.42C73.7,25.47,64.21,16,53.08,16.12q-14,.14-28,0c-4.11,0-8.21-.25-12.3-.6C6.9,15,.93,8.89.21,3-.11.27,1.51.06,3.48.07Z"/><path class="cls-1" d="M0,79.5Q0,55.68,0,31.85c0-1.33.1-2.66.16-4,.09-1.93,1.08-2.22,2.66-1.46a23.51,23.51,0,0,0,8.92,2.51c3.42.15,4.35,1.85,4.33,5.16-.12,26-.06,52-.06,78,0,5.49,0,5.5,5.51,5.5q32.49,0,65,0c5.22,0,5.46.26,5.47,5.43,0,2.22-.1,4.45,0,6.66.16,2.88-1.11,4-4,3.92-8.1-.09-16.21,0-24.32,0h-59c-4.46,0-4.74-.27-4.74-4.7Q0,104.16,0,79.5Z"/><path class="cls-1" d="M42.44,29.51c3.1,0,6.21-.13,9.31,0,4.39.23,7.11,2.82,7.57,6.93.48,4.3-1.63,7.89-6,8.59-7.24,1.17-14.59.46-21.89.34-1.68,0-2-1.5-2.05-2.92,0-3.33,0-6.66,0-10,0-2.06,1-3,3.08-3,3.33,0,6.65,0,10,0Z"/></g></g></svg>